<svg height="117px" version="1.1" viewBox="0 0 117 117" width="117px" xmlns="http://www.w3.org/2000/svg" xmlns:xlink="http://www.w3.org/1999/xlink"><title/><desc/><defs/><g fill="none" fill-rule="evenodd" id="Page-1" stroke="none" stroke-width="1"><g fill-rule="nonzero" id="bin"><path d="M4.5,25.2 L9,25.2 L19.5,112.9 C19.7,115 21.5,116.5 23.6,116.5 L93.4,116.5 C95.5,116.5 97.2,115 97.5,112.9 L108,25.2 L112.5,25.2 C114.8,25.2 116.6,23.4 116.6,21.1 C116.6,18.8 114.8,17 112.5,17 L104.3,17 L81.1,17 L81.1,4.5 C81.1,2.2 79.3,0.4 77,0.4 L40,0.4 C37.7,0.4 35.9,2.2 35.9,4.5 L35.9,17 L12.7,17 L4.5,17 C2.2,17 0.4,18.8 0.4,21.1 C0.4,23.4 2.3,25.2 4.5,25.2 Z M44.1,8.6 L72.9,8.6 L72.9,17 L44.1,17 L44.1,8.6 Z M99.7,25.2 L89.8,108.4 L27.2,108.4 L17.3,25.2 L99.7,25.2 Z" fill="#4A4A4A" id="Shape"/><path d="M44.9,95.9 C47.2,95.9 49,94.1 49,91.8 L49,42.7 C49,40.4 47.2,38.6 44.9,38.6 C42.6,38.6 40.8,40.4 40.8,42.7 L40.8,91.8 C40.8,94.1 42.6,95.9 44.9,95.9 Z" fill="#17AB13" id="Shape"/><path d="M72.1,95.9 C74.4,95.9 76.2,94.1 76.2,91.8 L76.2,42.7 C76.2,40.4 74.4,38.6 72.1,38.6 C69.8,38.6 68,40.4 68,42.7 L68,91.8 C68,94.1 69.9,95.9 72.1,95.9 Z" fill="#17AB13" id="Shape"/></g></g></svg>